<svg width="28" height="28" viewBox="0 0 28 28" fill="none" xmlns="http://www.w3.org/2000/svg">
<g clip-path="url(#clip0_71_421)">
<path d="M28 14C28 21.7319 21.7319 28 14 28C6.26806 28 0 21.7319 0 14C0 14.0033 14 0.00158594 14 0C21.7319 0 28 6.26806 28 14Z" fill="#0052B4"/>
<path d="M13.9629 13.9999H14.0004C14.0004 13.9872 14.0004 13.975 14.0004 13.9624C13.9879 13.9749 13.9754 13.9874 13.9629 13.9999Z" fill="#F0F0F0"/>
<path d="M14 7.30434C14 4.84094 14 3.22673 14 0H13.9976C6.26675 0.00125781 0 6.26872 0 13.9999H7.30434V9.88679L11.4175 13.9999H13.9626C13.9751 13.9875 13.9876 13.975 14.0001 13.9625C14.0001 13.0193 14.0001 12.1777 14.0001 11.4175L9.88684 7.30434H14Z" fill="#F0F0F0"/>
<path d="M7.0849 1.82617C4.89527 3.07299 3.07495 4.89332 1.82812 7.08295V14.0001H5.48031V5.47842L14.002 5.47837C14.002 4.32648 14.002 3.22913 14.002 1.82617H7.0849Z" fill="#D80027"/>
<path d="M14.0023 12.2786L9.02826 7.30471H7.30664L14.0022 14.0003H14.0023C14.0023 14.0003 14.0023 12.8133 14.0023 12.2786Z" fill="#D80027"/>
<path d="M8.44497 16.4346L9.21333 18.0412L10.9484 17.6402L10.1714 19.2426L11.5667 20.3491L9.82944 20.7407L9.8343 22.5215L8.44497 21.4074L7.05569 22.5215L7.06055 20.7407L5.32324 20.3491L6.71859 19.2426L5.94148 17.6402L7.67666 18.0412L8.44497 16.4346Z" fill="#F0F0F0"/>
<path d="M20.9622 19.478L21.3464 20.2813L22.2139 20.0808L21.8254 20.882L22.5231 21.4353L21.6544 21.6311L21.6568 22.5215L20.9622 21.9644L20.2676 22.5215L20.27 21.6311L19.4014 21.4353L20.099 20.882L19.7105 20.0808L20.578 20.2813L20.9622 19.478Z" fill="#F0F0F0"/>
<path d="M17.388 10.9565L17.7722 11.7599L18.6397 11.5593L18.2512 12.3605L18.9489 12.9138L18.0803 13.1096L18.0826 14L17.388 13.4429L16.6934 14L16.6957 13.1096L15.8271 12.9138L16.5248 12.3605L16.1363 11.5593L17.0039 11.7599L17.388 10.9565Z" fill="#F0F0F0"/>
<path d="M20.9622 6.08691L21.3464 6.89027L22.2139 6.68973L21.8254 7.49096L22.523 8.04418L21.6544 8.24002L21.6568 9.13044L20.9622 8.57334L20.2676 9.13044L20.27 8.24002L19.4014 8.04418L20.099 7.49096L19.7105 6.68973L20.578 6.89027L20.9622 6.08691Z" fill="#F0F0F0"/>
<path d="M24.0843 9.73926L24.4685 10.5426L25.336 10.342L24.9475 11.1432L25.6452 11.6965L24.7765 11.8924L24.7789 12.7827L24.0843 12.2257L23.3897 12.7827L23.392 11.8924L22.5234 11.6965L23.2211 11.1432L22.8326 10.342L23.7001 10.5426L24.0843 9.73926Z" fill="#F0F0F0"/>
<path d="M21.8523 14L22.1545 14.93H23.1324L22.3412 15.5048L22.6435 16.4348L21.8523 15.86L21.0612 16.4348L21.3634 15.5048L20.5723 14.93H21.5501L21.8523 14Z" fill="#F0F0F0"/>
</g>
<defs>
<clipPath id="clip0_71_421">
<rect width="28" height="28" fill="white"/>
</clipPath>
</defs>
</svg>
