<svg width="28" height="28" viewBox="0 0 28 28" fill="none" xmlns="http://www.w3.org/2000/svg">
<g clip-path="url(#clip0_71_369)">
<path d="M14 28C21.732 28 28 21.732 28 14C28 6.26801 21.732 0 14 0C6.26801 0 0 6.26801 0 14C0 21.732 6.26801 28 14 28Z" fill="#F0F0F0"/>
<path d="M2.89615 5.47656C1.79644 6.90735 0.967213 8.55645 0.484375 10.348H7.76753L2.89615 5.47656Z" fill="#0052B4"/>
<path d="M27.5194 10.3479C27.0366 8.55645 26.2073 6.90735 25.1076 5.47656L20.2363 10.3479H27.5194Z" fill="#0052B4"/>
<path d="M0.484375 17.6523C0.967268 19.4438 1.79649 21.0929 2.89615 22.5236L7.76736 17.6523H0.484375Z" fill="#0052B4"/>
<path d="M22.5256 2.89425C21.0949 1.79454 19.4458 0.96531 17.6543 0.482422V7.76552L22.5256 2.89425Z" fill="#0052B4"/>
<path d="M5.47852 25.1061C6.9093 26.2058 8.55841 27.035 10.3499 27.5179V20.2349L5.47852 25.1061Z" fill="#0052B4"/>
<path d="M10.3498 0.482422C8.55835 0.96531 6.90925 1.79454 5.47852 2.89419L10.3498 7.76547V0.482422Z" fill="#0052B4"/>
<path d="M17.6543 27.5179C19.4457 27.035 21.0949 26.2058 22.5256 25.1062L17.6543 20.2349V27.5179Z" fill="#0052B4"/>
<path d="M20.2363 17.6523L25.1076 22.5237C26.2073 21.093 27.0366 19.4438 27.5194 17.6523H20.2363Z" fill="#0052B4"/>
<path d="M27.8815 12.1739H15.8262H15.8261V0.118508C15.2283 0.0406875 14.6189 0 14 0C13.381 0 12.7717 0.0406875 12.1739 0.118508V12.1738V12.1739H0.118508C0.0406875 12.7717 0 13.3811 0 14C0 14.619 0.0406875 15.2283 0.118508 15.8261H12.1738H12.1739V27.8815C12.7717 27.9593 13.381 28 14 28C14.6189 28 15.2283 27.9594 15.8261 27.8815V15.8262V15.8261H27.8815C27.9593 15.2283 28 14.619 28 14C28 13.3811 27.9593 12.7717 27.8815 12.1739Z" fill="#D80027"/>
<path d="M17.6523 17.6524L23.8996 23.8997C24.187 23.6125 24.461 23.3122 24.7226 23.0009L19.374 17.6523H17.6523V17.6524Z" fill="#D80027"/>
<path d="M10.3479 17.6523H10.3478L4.10059 23.8996C4.3878 24.1869 4.68809 24.461 4.99937 24.7225L10.3479 19.3739V17.6523Z" fill="#D80027"/>
<path d="M10.3476 10.348V10.3479L4.10028 4.10059C3.81295 4.3878 3.53886 4.68809 3.27734 4.99937L8.62597 10.3479L10.3476 10.348Z" fill="#D80027"/>
<path d="M17.6523 10.3481L23.8997 4.10071C23.6125 3.81339 23.3122 3.53929 23.0009 3.27783L17.6523 8.62646V10.3481Z" fill="#D80027"/>
</g>
<defs>
<clipPath id="clip0_71_369">
<rect width="28" height="28" fill="white"/>
</clipPath>
</defs>
</svg>
