<svg width="28" height="28" viewBox="0 0 28 28" fill="none" xmlns="http://www.w3.org/2000/svg">
<g clip-path="url(#clip0_71_457)">
<path d="M14 28C21.732 28 28 21.732 28 14C28 6.26801 21.732 0 14 0C6.26801 0 0 6.26801 0 14C0 21.732 6.26801 28 14 28Z" fill="#D80027"/>
<path d="M15.4449 10.5913C15.1267 11.9147 14.5614 11.6623 14.284 12.8164C12.6497 12.4235 11.6433 10.7801 12.0362 9.14577C12.429 7.51154 14.0725 6.50507 15.7068 6.898C15.1518 9.2062 15.7295 9.40767 15.4449 10.5913Z" fill="#F0F0F0"/>
<path d="M11.2043 11.5719C12.3646 12.2834 11.9498 12.7431 12.9617 13.3637C12.083 14.7966 10.2091 15.2458 8.77616 14.3671C7.3433 13.4885 6.89393 11.6145 7.77265 10.1816C9.79641 11.4226 10.1664 10.9355 11.2043 11.5719Z" fill="#F0F0F0"/>
<path d="M10.8259 15.9082C11.8612 15.0246 12.1701 15.5611 13.0729 14.7905C14.1642 16.069 14.0124 17.99 12.734 19.0813C11.4555 20.1726 9.53448 20.0206 8.44336 18.7423C10.2488 17.201 9.89985 16.6985 10.8259 15.9082Z" fill="#F0F0F0"/>
<path d="M14.8336 17.6072C14.313 16.3495 14.9187 16.2213 14.4648 15.1247C16.0179 14.4819 17.7981 15.2199 18.4409 16.773C19.0836 18.326 18.3456 20.1062 16.7925 20.749C15.8849 18.5555 15.2992 18.7321 14.8336 17.6072Z" fill="#F0F0F0"/>
<path d="M17.6886 14.3212C16.3316 14.4276 16.3967 13.8119 15.2136 13.9047C15.0822 12.2291 16.3342 10.764 18.0099 10.6325C19.6855 10.5013 21.1506 11.7532 21.2819 13.4289C18.9152 13.6145 18.9021 14.2261 17.6886 14.3212Z" fill="#F0F0F0"/>
</g>
<defs>
<clipPath id="clip0_71_457">
<rect width="28" height="28" fill="white"/>
</clipPath>
</defs>
</svg>
