<svg width="28" height="28" viewBox="0 0 28 28" fill="none" xmlns="http://www.w3.org/2000/svg">
<g clip-path="url(#clip0_71_442)">
<mask id="mask0_71_442" style="mask-type:luminance" maskUnits="userSpaceOnUse" x="0" y="0" width="28" height="28">
<path d="M28 0H0V28H28V0Z" fill="white"/>
</mask>
<g mask="url(#mask0_71_442)">
<path d="M14 28C21.732 28 28 21.732 28 14C28 6.26801 21.732 0 14 0C6.26801 0 0 6.26801 0 14C0 21.732 6.26801 28 14 28Z" fill="#F0F0F0"/>
<path d="M14.0005 0C8.45003 0 3.65415 3.23012 1.38965 7.91306H26.6113C24.3468 3.23012 19.5509 0 14.0005 0Z" fill="#FF9811"/>
<path d="M14.0005 28C19.5509 28 24.3468 24.7699 26.6113 20.0869H1.38965C3.65415 24.7699 8.45003 28 14.0005 28Z" fill="#6DA544"/>
<path d="M14.0004 18.8694C16.6898 18.8694 18.8699 16.6893 18.8699 13.9999C18.8699 11.3105 16.6898 9.13037 14.0004 9.13037C11.311 9.13037 9.13086 11.3105 9.13086 13.9999C9.13086 16.6893 11.311 18.8694 14.0004 18.8694Z" fill="#0052B4"/>
<path d="M13.9995 17.0435C15.6804 17.0435 17.043 15.6808 17.043 14C17.043 12.3191 15.6804 10.9565 13.9995 10.9565C12.3186 10.9565 10.9561 12.3191 10.9561 14C10.9561 15.6808 12.3186 17.0435 13.9995 17.0435Z" fill="#F0F0F0"/>
<path d="M14.0005 10.2446L14.9394 12.3741L17.2529 12.1224L15.8783 14.0002L17.2529 15.878L14.9394 15.6264L14.0005 17.7558L13.0615 15.6264L10.748 15.878L12.1227 14.0002L10.748 12.1224L13.0615 12.3741L14.0005 10.2446Z" fill="#0052B4"/>
</g>
</g>
<defs>
<clipPath id="clip0_71_442">
<rect width="28" height="28" fill="white"/>
</clipPath>
</defs>
</svg>
