<svg width="28" height="28" viewBox="0 0 28 28" fill="none" xmlns="http://www.w3.org/2000/svg">
<g clip-path="url(#clip0_71_470)">
<mask id="mask0_71_470" style="mask-type:luminance" maskUnits="userSpaceOnUse" x="0" y="0" width="28" height="28">
<path d="M28 0H0V28H28V0Z" fill="white"/>
</mask>
<g mask="url(#mask0_71_470)">
<path d="M14 28C21.732 28 28 21.732 28 14C28 6.26801 21.732 0 14 0C6.26801 0 0 6.26801 0 14C0 21.732 6.26801 28 14 28Z" fill="#F0F0F0"/>
<path d="M27.1292 9.13037H0.870789C0.308 10.647 0 12.2874 0 13.9999C0 15.7124 0.308 17.3528 0.870789 18.8694H27.1293C27.692 17.3528 28 15.7124 28 13.9999C28 12.2874 27.692 10.647 27.1292 9.13037Z" fill="#0052B4"/>
<path d="M14.0004 0C9.75712 0 5.95508 1.88803 3.3877 4.86954H24.613C22.0457 1.88803 18.2436 0 14.0004 0Z" fill="#D80027"/>
<path d="M24.6131 23.1304H3.3877C5.95508 26.1119 9.75712 27.9999 14.0004 27.9999C18.2436 27.9999 22.0457 26.1119 24.6131 23.1304Z" fill="#D80027"/>
</g>
</g>
<defs>
<clipPath id="clip0_71_470">
<rect width="28" height="28" fill="white"/>
</clipPath>
</defs>
</svg>
