<svg width="28" height="28" viewBox="0 0 28 28" fill="none" xmlns="http://www.w3.org/2000/svg">
<g clip-path="url(#clip0_71_410)">
<path d="M14 28C21.732 28 28 21.732 28 14C28 6.26801 21.732 0 14 0C6.26801 0 0 6.26801 0 14C0 21.732 6.26801 28 14 28Z" fill="#F0F0F0"/>
<path d="M28.001 14C28.001 8.44954 24.7708 3.65366 20.0879 1.38916V26.6108C24.7708 24.3463 28.001 19.5504 28.001 14Z" fill="#D80027"/>
<path d="M0 14C0 19.5504 3.23012 24.3463 7.91306 26.6108V1.38916C3.23012 3.65366 0 8.44954 0 14Z" fill="#D80027"/>
<path d="M16.4332 15.8262L18.868 14.6088L17.6506 14.0001V12.7827L15.2158 14.0001L16.4332 11.5653H15.2158L13.9984 9.73926L12.781 11.5653H11.5636L12.781 14.0001L10.3462 12.7827V14.0001L9.12891 14.6088L11.5636 15.8262L10.955 17.0436H13.3898V18.8697H14.6071V17.0436H17.0419L16.4332 15.8262Z" fill="#D80027"/>
</g>
<defs>
<clipPath id="clip0_71_410">
<rect width="28" height="28" fill="white"/>
</clipPath>
</defs>
</svg>
