<svg width="28" height="28" viewBox="0 0 28 28" fill="none" xmlns="http://www.w3.org/2000/svg">
<g clip-path="url(#clip0_71_393)">
<path d="M14 28C21.732 28 28 21.732 28 14C28 6.26801 21.732 0 14 0C6.26801 0 0 6.26801 0 14C0 21.732 6.26801 28 14 28Z" fill="#0052B4"/>
<path d="M13.9982 5.47852L14.4515 6.87354H15.9182L14.7316 7.73569L15.1849 9.13071L13.9982 8.26851L12.8115 9.13071L13.2648 7.73569L12.0781 6.87354H13.5449L13.9982 5.47852Z" fill="#FFDA44"/>
<path d="M7.97468 7.97473L9.28171 8.64061L10.3189 7.60352L10.0893 9.05219L11.3963 9.71812L9.94759 9.94759L9.71812 11.3964L9.05219 10.0894L7.60352 10.3189L8.64066 9.28177L7.97468 7.97473Z" fill="#FFDA44"/>
<path d="M5.47754 14.0002L6.87256 13.5469V12.0801L7.73466 13.2668L9.12973 12.8135L8.26748 14.0002L9.12973 15.1868L7.73466 14.7336L6.87256 15.9202V14.4535L5.47754 14.0002Z" fill="#FFDA44"/>
<path d="M7.97468 20.0261L8.64061 18.719L7.60352 17.6819L9.05224 17.9115L9.71806 16.6045L9.94759 18.0532L11.3963 18.2827L10.0894 18.9486L10.3189 20.3973L9.28171 19.3601L7.97468 20.0261Z" fill="#FFDA44"/>
<path d="M13.9982 22.5222L13.5448 21.1272H12.0781L13.2648 20.265L12.8115 18.8701L13.9982 19.7322L15.1849 18.8701L14.7316 20.265L15.9182 21.1272H14.4515L13.9982 22.5222Z" fill="#FFDA44"/>
<path d="M20.025 20.0261L18.7181 19.3602L17.6809 20.3973L17.9104 18.9486L16.6035 18.2827L18.0522 18.0532L18.2817 16.6045L18.9475 17.9115L20.3962 17.6819L19.3591 18.7191L20.025 20.0261Z" fill="#FFDA44"/>
<path d="M22.5212 14.0002L21.1262 14.4535V15.9202L20.2641 14.7335L18.8691 15.1868L19.7313 14.0002L18.8691 12.8135L20.2641 13.2668L21.1262 12.0801V13.5469L22.5212 14.0002Z" fill="#FFDA44"/>
<path d="M20.025 7.97468L19.3591 9.28171L20.3963 10.3189L18.9475 10.0893L18.2817 11.3963L18.0522 9.94753L16.6035 9.71801L17.9104 9.05213L17.6809 7.60352L18.7181 8.64061L20.025 7.97468Z" fill="#FFDA44"/>
</g>
<defs>
<clipPath id="clip0_71_393">
<rect width="28" height="28" fill="white"/>
</clipPath>
</defs>
</svg>
