<svg width="54" height="15" viewBox="0 0 54 15" fill="none" xmlns="http://www.w3.org/2000/svg">
<g clip-path="url(#clip0_1_111)">
<g clip-path="url(#clip1_1_111)">
<mask id="mask0_1_111" style="mask-type:luminance" maskUnits="userSpaceOnUse" x="0" y="0" width="15" height="15">
<path d="M14.9461 0.5H0.740234V14.5H14.9461V0.5Z" fill="white"/>
</mask>
<g mask="url(#mask0_1_111)">
<path d="M14.3423 8.08608C15.6826 5.59475 14.7175 2.47146 12.1868 1.10998C9.65597 -0.251503 6.38645 0.87559 5.04623 3.3669C2.32825 8.41915 3.90744 7.63294 7.05346 10.003C9.58417 11.3645 13.002 10.5774 14.3423 8.08608Z" fill="#AF9EF9"/>
<path d="M3.14978 7.90335L2.72778 7.67632L5.046 3.36719L5.46799 3.59421L3.14978 7.90335Z" fill="#AF9EF9"/>
<path d="M7.05326 10.0033L2.72778 7.67634L3.23664 6.73047L7.5621 9.05745L7.05326 10.0033Z" fill="#AF9EF9"/>
<path d="M1.0362 10.7977C0.379429 12.0185 0.85234 13.5489 2.09246 14.2162C3.3326 14.8833 4.93475 14.3309 5.59151 13.1102C6.9234 10.6344 6.14954 11.0196 4.60792 9.85825C3.36779 9.19114 1.69296 9.57686 1.0362 10.7977Z" fill="#AF9EF9"/>
<path d="M6.52125 10.8875L6.728 10.9987L5.59204 13.1103L5.38525 12.9991L6.52125 10.8875Z" fill="#AF9EF9"/>
<path d="M4.60751 9.85864L6.7271 10.999L6.47778 11.4625L4.35815 10.3222L4.60751 9.85864Z" fill="#AF9EF9"/>
</g>
</g>
<path d="M18.2402 13.042L20.0077 2.39556H24.0001C24.818 2.39556 25.4799 2.54804 25.9859 2.85302C26.4919 3.15453 26.8437 3.57213 27.0412 4.10584C27.2387 4.63608 27.2803 5.24083 27.1659 5.9201C27.0551 6.60283 26.8107 7.20931 26.433 7.73955C26.0587 8.26976 25.5648 8.68742 24.9514 8.99236C24.338 9.29386 23.6206 9.44464 22.7993 9.44464H20.1533L20.4184 7.85911H22.8045C23.2827 7.85911 23.6882 7.77594 24.0209 7.60959C24.357 7.44324 24.6222 7.21451 24.8162 6.92339C25.0103 6.63228 25.1386 6.29785 25.201 5.9201C25.2599 5.54234 25.2408 5.20965 25.1438 4.92199C25.0467 4.63435 24.8579 4.41082 24.5771 4.2514C24.2999 4.08851 23.9204 4.00707 23.4387 4.00707H21.6712L20.1689 13.042H18.2402ZM31.3429 2.39556L29.5754 13.042H27.6468L29.4143 2.39556H31.3429ZM42.1803 2.39556L40.4129 13.042H38.6974L34.8869 5.79014H34.8037L33.5925 13.042H31.6639L33.4313 2.39556H35.1573L38.9625 9.65257H39.0613L40.2621 2.39556H42.1803ZM50.8422 5.79533C50.8041 5.51462 50.7348 5.26336 50.6343 5.04156C50.5338 4.8163 50.3986 4.62569 50.2288 4.46973C50.059 4.31031 49.8528 4.18902 49.6102 4.10584C49.3676 4.02267 49.0852 3.98108 48.7628 3.98108C48.191 3.98108 47.6487 4.12491 47.1357 4.41255C46.6228 4.70019 46.1844 5.123 45.8206 5.68097C45.4567 6.23547 45.2089 6.91127 45.0772 7.70836C44.9455 8.51237 44.9524 9.19336 45.098 9.75132C45.2435 10.3093 45.5104 10.7339 45.8985 11.025C46.2901 11.3126 46.7823 11.4564 47.3749 11.4564C47.919 11.4564 48.4128 11.3525 48.8564 11.1445C49.3 10.9366 49.6674 10.642 49.9585 10.2608C50.2531 9.87609 50.4402 9.42555 50.5199 8.9092L50.9462 8.97676H48.0507L48.3106 7.46923H52.6305L52.4122 8.74806C52.2631 9.66298 51.9391 10.4531 51.4401 11.1185C50.9445 11.7805 50.3259 12.2917 49.5842 12.6521C48.8461 13.009 48.0368 13.1875 47.1565 13.1875C46.1793 13.1875 45.3562 12.9675 44.6873 12.5273C44.0219 12.0837 43.5506 11.4547 43.2733 10.6403C42.9961 9.82238 42.951 8.85199 43.1382 7.72915C43.2768 6.86967 43.5228 6.10204 43.8764 5.42624C44.2333 4.75045 44.6699 4.17689 45.1864 3.70556C45.7062 3.23077 46.2832 2.87034 46.9174 2.62429C47.5516 2.37476 48.217 2.25 48.9136 2.25C49.4993 2.25 50.033 2.33664 50.5147 2.50992C50.9964 2.67974 51.4089 2.92233 51.752 3.2377C52.0985 3.55308 52.3636 3.92736 52.5473 4.36056C52.731 4.79377 52.8176 5.27202 52.8073 5.79533H50.8422Z" fill="white"/>
</g>
<defs>
<clipPath id="clip0_1_111">
<rect width="52.5" height="14" fill="white" transform="translate(0.740234 0.5)"/>
</clipPath>
<clipPath id="clip1_1_111">
<rect width="14.2059" height="14" fill="white" transform="translate(0.740234 0.5)"/>
</clipPath>
</defs>
</svg>
