<svg width="900" height="240" viewBox="0 0 900 240" fill="none" xmlns="http://www.w3.org/2000/svg">
<g clip-path="url(#clip0_6_158)">
<mask id="mask0_6_158" style="mask-type:luminance" maskUnits="userSpaceOnUse" x="0" y="0" width="244" height="240">
<path d="M243.529 0H0V240H243.529V0Z" fill="white"/>
</mask>
<g mask="url(#mask0_6_158)">
<path d="M233.178 130.043C256.154 87.3344 239.61 33.7922 196.226 10.4526C152.841 -12.8871 96.7923 6.4345 73.817 49.1426C27.2231 135.753 54.295 122.275 108.227 162.904C151.61 186.244 210.202 172.751 233.178 130.043Z" fill="#745DDC"/>
<path d="M41.3065 126.908L34.0723 123.016L73.8131 49.1455L81.0472 53.0373L41.3065 126.908Z" fill="#745DDC"/>
<path d="M108.223 162.908L34.0723 123.017L42.7956 106.802L116.946 146.693L108.223 162.908Z" fill="#745DDC"/>
<path d="M5.07366 176.531C-6.18523 197.459 1.92182 223.696 23.1811 235.134C44.4405 246.571 71.9059 237.101 83.1648 216.174C105.997 173.733 92.7309 180.336 66.3032 160.427C45.0438 148.99 16.3324 155.603 5.07366 176.531Z" fill="#745DDC"/>
<path d="M99.0957 178.066L102.64 179.974L83.1665 216.173L79.6216 214.266L99.0957 178.066Z" fill="#745DDC"/>
<path d="M66.3035 160.426L102.639 179.975L98.3652 187.92L62.0288 168.373L66.3035 160.426Z" fill="#745DDC"/>
</g>
</g>
<path d="M300 215.005L330.299 32.4953H398.741C412.761 32.4953 424.109 35.1093 432.783 40.3375C441.457 45.5062 447.487 52.6651 450.873 61.8144C454.26 70.9043 454.972 81.2714 453.012 92.9159C451.112 104.62 446.923 115.017 440.447 124.107C434.031 133.196 425.565 140.356 415.049 145.583C404.533 150.752 392.235 153.337 378.155 153.337H332.795L337.34 126.156H378.244C386.443 126.156 393.394 124.73 399.097 121.879C404.859 119.027 409.405 115.106 412.732 110.115C416.059 105.125 418.257 99.3917 419.327 92.9159C420.336 86.4401 420.01 80.7368 418.346 75.8056C416.683 70.8745 413.445 67.0426 408.632 64.3097C403.88 61.5173 397.374 60.1212 389.116 60.1212H358.817L333.062 215.005H300ZM524.617 32.4953L494.318 215.005H461.256L491.555 32.4953H524.617ZM710.402 32.4953L680.102 215.005H650.694L585.372 90.6881H583.946L563.182 215.005H530.12L560.419 32.4953H590.006L655.239 156.901H656.932L677.518 32.4953H710.402ZM858.891 90.7771C858.238 85.9649 857.05 81.6576 855.327 77.8553C853.604 73.9937 851.286 70.7261 848.375 68.0526C845.464 65.3196 841.93 63.2403 837.771 61.8144C833.612 60.3885 828.77 59.6757 823.245 59.6757C813.442 59.6757 804.144 62.1412 795.352 67.0723C786.559 72.0033 779.044 79.2515 772.806 88.8166C766.567 98.3223 762.32 109.907 760.062 123.572C757.804 137.355 757.923 149.029 760.418 158.594C762.913 168.159 767.488 175.438 774.142 180.428C780.855 185.359 789.292 187.824 799.451 187.824C808.778 187.824 817.244 186.042 824.849 182.478C832.454 178.913 838.752 173.864 843.742 167.328C848.792 160.733 852 153.009 853.367 144.158L860.674 145.316H811.036L815.492 119.473H889.547L885.805 141.395C883.25 157.08 877.695 170.625 869.14 182.032C860.644 193.38 850.039 202.143 837.325 208.321C824.671 214.44 810.798 217.5 795.708 217.5C778.955 217.5 764.845 213.728 753.378 206.182C741.971 198.578 733.892 187.795 729.138 173.834C724.385 159.812 723.613 143.177 726.822 123.928C729.198 109.194 733.416 96.0351 739.476 84.4499C745.596 72.8649 753.081 63.0323 761.934 54.9525C770.845 46.8133 780.737 40.6345 791.608 36.4164C802.481 32.1388 813.888 30 825.829 30C835.869 30 845.019 31.4853 853.277 34.4558C861.535 37.3669 868.605 41.5256 874.487 46.9321C880.428 52.3384 884.973 58.7548 888.121 66.1811C891.271 73.6075 892.755 81.8061 892.578 90.7771H858.891Z" fill="white"/>
<defs>
<clipPath id="clip0_6_158">
<rect width="243.529" height="240" fill="white"/>
</clipPath>
</defs>
</svg>
