<svg width="21" height="20" viewBox="0 0 21 20" fill="none" xmlns="http://www.w3.org/2000/svg">
<rect width="21" height="20" fill="#1E1E1E"/>
<path d="M-905 -270C-905 -271.105 -904.105 -272 -903 -272H2273C2274.1 -272 2275 -271.105 2275 -270V784C2275 785.105 2274.1 786 2273 786H-903C-904.105 786 -905 785.105 -905 784V-270Z" fill="#444444"/>
<path d="M-903 -272V-271H2273V-272V-273H-903V-272ZM2275 -270H2274V784H2275H2276V-270H2275ZM2273 786V785H-903V786V787H2273V786ZM-905 784H-904V-270H-905H-906V784H-905ZM-903 786V785C-903.552 785 -904 784.552 -904 784H-905H-906C-906 785.657 -904.657 787 -903 787V786ZM2275 784H2274C2274 784.552 2273.55 785 2273 785V786V787C2274.66 787 2276 785.657 2276 784H2275ZM2273 -272V-271C2273.55 -271 2274 -270.552 2274 -270H2275H2276C2276 -271.657 2274.66 -273 2273 -273V-272ZM-903 -272V-273C-904.657 -273 -906 -271.657 -906 -270H-905H-904C-904 -270.552 -903.552 -271 -903 -271V-272Z" fill="white" fill-opacity="0.1"/>
<rect width="1440" height="760" transform="translate(-805 -172)" fill="white"/>
<g clip-path="url(#clip0_0_1)">
<rect x="-295" y="-128" width="420" height="672" rx="16" fill="#1E1E1E"/>
<rect x="-294.5" y="-127.5" width="419" height="671" rx="15.5" stroke="white" stroke-opacity="0.16"/>
<rect x="-279" y="-53.5" width="388" height="99" rx="8" fill="#303030"/>
<rect x="-278.5" y="-53" width="387" height="98" rx="7.5" stroke="white" stroke-opacity="0.18"/>
<rect x="-12.4707" y="-11" width="105.37" height="42" rx="21" fill="white" fill-opacity="0.09"/>
<rect x="-11.9707" y="-10.5" width="104.37" height="41" rx="20.5" stroke="white" stroke-opacity="0.12"/>
<g clip-path="url(#clip1_0_1)">
<g clip-path="url(#clip2_0_1)">
<g clip-path="url(#clip3_0_1)">
<mask id="mask0_0_1" style="mask-type:luminance" maskUnits="userSpaceOnUse" x="0" y="0" width="21" height="20">
<path d="M20.5293 0H0.529297V20H20.5293V0Z" fill="white"/>
</mask>
<g mask="url(#mask0_0_1)">
<path d="M10.5293 20C16.0521 20 20.5293 15.5229 20.5293 10C20.5293 4.47715 16.0521 0 10.5293 0C5.00645 0 0.529297 4.47715 0.529297 10C0.529297 15.5229 5.00645 20 10.5293 20Z" fill="#F0F0F0"/>
<path d="M10.0945 10.0001H20.5292C20.5292 9.09749 20.4089 8.22312 20.1848 7.39136H10.0945V10.0001Z" fill="#D80027"/>
<path d="M10.0945 4.78253H19.0615C18.4494 3.78363 17.6667 2.9007 16.7541 2.17383H10.0945V4.78253Z" fill="#D80027"/>
<path d="M10.5293 19.9998C12.8828 19.9998 15.0459 19.1864 16.7542 17.8259H4.30444C6.01267 19.1864 8.17583 19.9998 10.5293 19.9998Z" fill="#D80027"/>
<path d="M1.99702 15.2174H19.0615C19.553 14.4154 19.9341 13.5389 20.1848 12.6086H0.873779C1.12444 13.5389 1.50557 14.4154 1.99702 15.2174Z" fill="#D80027"/>
<path d="M5.16148 1.56164H6.07277L5.22512 2.17746L5.54891 3.17391L4.70129 2.55809L3.85367 3.17391L4.13336 2.31309C3.38703 2.93477 2.73289 3.66313 2.19383 4.47469H2.48582L1.94625 4.86668C1.86219 5.00691 1.78156 5.14937 1.7043 5.29395L1.96195 6.08695L1.48125 5.7377C1.36176 5.99086 1.25246 6.24973 1.15422 6.51398L1.43809 7.38773H2.48582L1.63816 8.00356L1.96195 9L1.11434 8.38418L0.606602 8.75309C0.555781 9.1616 0.529297 9.57769 0.529297 10H10.5293C10.5293 4.47719 10.5293 3.82609 10.5293 0C8.55383 0 6.7123 0.573047 5.16148 1.56164ZM5.54891 9L4.70129 8.38418L3.85367 9L4.17746 8.00356L3.3298 7.38773H4.37754L4.70129 6.39129L5.02504 7.38773H6.07277L5.22512 8.00356L5.54891 9ZM5.22512 5.09051L5.54891 6.08695L4.70129 5.47113L3.85367 6.08695L4.17746 5.09051L3.3298 4.47469H4.37754L4.70129 3.47824L5.02504 4.47469H6.07277L5.22512 5.09051ZM9.13586 9L8.28824 8.38418L7.44062 9L7.76441 8.00356L6.91676 7.38773H7.96449L8.28824 6.39129L8.61199 7.38773H9.65973L8.81207 8.00356L9.13586 9ZM8.81207 5.09051L9.13586 6.08695L8.28824 5.47113L7.44062 6.08695L7.76441 5.09051L6.91676 4.47469H7.96449L8.28824 3.47824L8.61199 4.47469H9.65973L8.81207 5.09051ZM8.81207 2.17746L9.13586 3.17391L8.28824 2.55809L7.44062 3.17391L7.76441 2.17746L6.91676 1.56164H7.96449L8.28824 0.565195L8.61199 1.56164H9.65973L8.81207 2.17746Z" fill="#0052B4"/>
</g>
</g>
</g>
</g>
</g>
<defs>
<clipPath id="clip0_0_1">
<rect x="-295" y="-128" width="420" height="672" rx="16" fill="white"/>
</clipPath>
<clipPath id="clip1_0_1">
<rect width="20" height="20" fill="white" transform="translate(0.529297)"/>
</clipPath>
<clipPath id="clip2_0_1">
<rect width="20" height="20" fill="white" transform="translate(0.529297)"/>
</clipPath>
<clipPath id="clip3_0_1">
<rect width="20" height="20" fill="white" transform="translate(0.529297)"/>
</clipPath>
</defs>
</svg>
