<svg width="96" height="96" viewBox="0 0 96 96" fill="none" xmlns="http://www.w3.org/2000/svg">
<g clip-path="url(#clip0_50_24)">
<path d="M86.7991 51.6544C94.5475 37.2517 88.9682 19.1953 74.3376 11.3243C59.7069 3.45337 40.8052 9.96928 33.0569 24.372C17.3437 53.5798 26.4734 49.035 44.661 62.7368C59.2917 70.6077 79.0508 66.0571 86.7991 51.6544Z" fill="#AF9EF9"/>
<rect width="2.77027" height="28.2881" transform="matrix(0.880649 0.473769 0.473769 -0.880649 19.6548 49.284)" fill="#AF9EF9"/>
<rect width="28.3953" height="6.20935" transform="matrix(0.880649 0.473769 0.473769 -0.880649 19.6548 49.284)" fill="#AF9EF9"/>
<path d="M9.87479 67.3312C6.0779 74.3889 8.81188 83.2371 15.9813 87.0941C23.1507 90.951 32.4131 87.7581 36.21 80.7003C43.9098 66.3877 39.4361 68.6148 30.5236 61.9006C23.3542 58.0436 13.6717 60.2735 9.87479 67.3312Z" fill="#AF9EF9"/>
<rect width="1.35751" height="13.8619" transform="matrix(-0.880649 -0.473769 -0.473769 0.880649 42.7773 68.4928)" fill="#AF9EF9"/>
<rect width="13.9145" height="3.04275" transform="matrix(-0.880649 -0.473769 -0.473769 0.880649 42.7773 68.4928)" fill="#AF9EF9"/>
</g>
<defs>
<clipPath id="clip0_50_24">
<rect width="96" height="96" fill="white"/>
</clipPath>
</defs>
</svg>
